<svg width="14" height="13" viewBox="0 0 14 13" fill="none" xmlns="http://www.w3.org/2000/svg">
<path d="M12.1496 1.06219C12.0052 0.619688 11.6007 0.304688 11.1241 0.304688H3.17963C2.70297 0.304688 2.30574 0.619688 2.15408 1.06219L0.651855 5.55469V11.1797C0.651855 11.8022 1.13574 12.3047 1.73519 12.3047C2.33463 12.3047 2.81852 11.8022 2.81852 11.1797V10.8047H11.4852V11.1797C11.4852 11.7947 11.9691 12.3047 12.5685 12.3047C13.1607 12.3047 13.6519 11.8022 13.6519 11.1797V5.55469L12.1496 1.06219ZM3.90186 8.55469C3.30241 8.55469 2.81852 8.05219 2.81852 7.42969C2.81852 6.80719 3.30241 6.30469 3.90186 6.30469C4.5013 6.30469 4.98519 6.80719 4.98519 7.42969C4.98519 8.05219 4.5013 8.55469 3.90186 8.55469ZM10.4019 8.55469C9.80241 8.55469 9.31852 8.05219 9.31852 7.42969C9.31852 6.80719 9.80241 6.30469 10.4019 6.30469C11.0013 6.30469 11.4852 6.80719 11.4852 7.42969C11.4852 8.05219 11.0013 8.55469 10.4019 8.55469ZM2.6813 4.05469L3.43241 1.80469H10.8641L11.6152 4.05469H2.6813Z" fill="#119DF9"/>
</svg>
