<svg width="36" height="34" viewBox="0 0 36 34" fill="none" xmlns="http://www.w3.org/2000/svg">
<path d="M17.8665 28.0853L9.2055 33.2104C8.82288 33.4495 8.42287 33.552 8.00547 33.5179C7.58807 33.4837 7.22285 33.347 6.9098 33.1079C6.59675 32.8687 6.35326 32.5694 6.17935 32.21C6.00543 31.8505 5.97065 31.4494 6.075 31.0066L8.3707 21.3202L0.700973 14.8114C0.353139 14.5039 0.136091 14.1534 0.0498288 13.7598C-0.0364339 13.3661 -0.0106943 12.9821 0.127048 12.6076C0.266181 12.2318 0.474881 11.9243 0.753147 11.6851C1.03141 11.446 1.41403 11.2922 1.901 11.2239L12.0229 10.3526L15.9361 1.23001C16.11 0.82001 16.3799 0.512506 16.7458 0.307504C17.1117 0.102501 17.4853 0 17.8665 0C18.2492 0 18.6227 0.102501 18.9873 0.307504C19.3518 0.512506 19.6217 0.82001 19.797 1.23001L23.7101 10.3526L33.8321 11.2239C34.3191 11.2922 34.7017 11.446 34.9799 11.6851C35.2582 11.9243 35.4669 12.2318 35.606 12.6076C35.7452 12.9835 35.7716 13.3682 35.6853 13.7618C35.5991 14.1554 35.3813 14.5053 35.0321 14.8114L27.3624 21.3202L29.6581 31.0066C29.7624 31.4508 29.7277 31.8526 29.5537 32.212C29.3798 32.5714 29.1363 32.8701 28.8233 33.1079C28.5102 33.347 28.145 33.4837 27.7276 33.5179C27.3102 33.552 26.9102 33.4495 26.5276 33.2104L17.8665 28.0853Z" fill="#FFC531"/>
</svg>
